# xmcd
#
# Track frame offsets:
#	183
#	15248
#	27665
#	40300
#	55235
#	68870
#	86773
#	99135
#	113793
#	124078
#	137320
#	151645
#	165388
#	177615
#	190790
#	203900
#
# Disc length: 2891 seconds
#
# Revision: 1
# Processed by: cddbd v1.5.1PL0 Copyright (c) Steve Scherf et al.
# Submitted via: audiograbber 1.83.01
#
DISCID=c80b4910
DTITLE=Various Artist - Blues through the night
DYEAR=1992
DGENRE=Blues
TTITLE0=Muddy Waters - Baby please don't go
TTITLE1=Howlin' Wolf - Spoonful
TTITLE2=Little Walter - Tell me mama
TTITLE3=Jimmer Witherspoon - Goin' down slow
TTITLE4=John Lee Hooker - Stella Mae
TTITLE5=Little Milton - Things I used to do
TTITLE6=Otis Spann - Five spot
TTITLE7=John Brim - Rattlesnake
TTITLE8=Lowell Fulson - Shed no tears
TTITLE9=Chuck Bery - Downbound train
TTITLE10=Bo Diddley - Before you accuse me
TTITLE11=Howlin' Wolf - Tail dragger
TTITLE12=Little Walter - It's too late brother
TTITLE13=Sonny Boy Williamson - Too young to die
TTITLE14=Muddy Waters - I just want to make love to you
TTITLE15=Otis Rush - All your love (I miss loving)
EXTD=
EXTT0=
EXTT1=
EXTT2=
EXTT3=
EXTT4=
EXTT5=
EXTT6=
EXTT7=
EXTT8=
EXTT9=
EXTT10=
EXTT11=
EXTT12=
EXTT13=
EXTT14=
EXTT15=
PLAYORDER=
